<svg xmlns="http://www.w3.org/2000/svg" width="27" height="48" viewBox="0 0 27 48"><path d="M20.887,24.127a38.485,38.485,0,0,1,4.541,1.5,23.247,23.247,0,0,1,3.8,2.061A8.9,8.9,0,0,1,32.271,31a10.048,10.048,0,0,1,1.056,4.749,8.339,8.339,0,0,1-2.551,6.312A12.765,12.765,0,0,1,24,45.25V51H16.033V45.25a13.424,13.424,0,0,1-6.781-3.5A9.937,9.937,0,0,1,6.327,35h5.847q.5,5.624,7.838,5.624,3.856,0,5.536-1.437a4.269,4.269,0,0,0,1.68-3.312q0-4.5-7.962-6.5Q6.823,26.5,6.823,18.372a8.351,8.351,0,0,1,2.612-6.187,13.233,13.233,0,0,1,6.593-3.437V3H23.99V8.874a11.027,11.027,0,0,1,6.282,3.749A10.591,10.591,0,0,1,32.573,19H26.726q-.249-5.624-6.717-5.624a8.712,8.712,0,0,0-5.162,1.376,4.26,4.26,0,0,0-1.93,3.624q0,3.624,7.962,5.749Z" transform="translate(-6.327 -2.999)"/></svg>