<svg xmlns="http://www.w3.org/2000/svg" width="72" height="48" viewBox="0 0 72 48"><path d="M66.857,30A41.175,41.175,0,0,0,51.549,15.291,19.041,19.041,0,0,1,54,24.667c0,10.291-8.077,18.667-18,18.667S18,34.957,18,24.667a19.056,19.056,0,0,1,2.451-9.376A41.156,41.156,0,0,0,5.143,30C12.014,41,23.1,48.667,36,48.667S59.986,41,66.857,30ZM37.929,14A1.994,1.994,0,0,0,36,12,12.5,12.5,0,0,0,23.786,24.667a1.93,1.93,0,1,0,3.857,0A8.563,8.563,0,0,1,36,16,1.994,1.994,0,0,0,37.929,14ZM72,30a5.911,5.911,0,0,1-.8,2.875C63.8,45.5,50.261,54,36,54S8.2,45.459.8,32.875a5.536,5.536,0,0,1,0-5.749C8.2,14.541,21.739,6,36,6s27.8,8.541,35.2,21.125A5.947,5.947,0,0,1,72,30Z" transform="translate(0 -6)"/></svg>