<svg xmlns="http://www.w3.org/2000/svg" width="38" height="48" viewBox="0 0 38 48"><path d="M15.872,28.381a6.973,6.973,0,0,1,2.112-5.069,6.9,6.9,0,0,1,10,0,7.14,7.14,0,0,1,0,10.139,6.9,6.9,0,0,1-10,0A6.973,6.973,0,0,1,15.872,28.381ZM41.983,44.27l-9.111-9.24a12.224,12.224,0,0,0,2-6.649,11.5,11.5,0,0,0-3.5-8.451,11.457,11.457,0,0,0-8.388-3.493,11.457,11.457,0,0,0-8.388,3.493,11.5,11.5,0,0,0-3.5,8.451,11.682,11.682,0,0,0,3.5,8.507,11.376,11.376,0,0,0,8.388,3.55,11.815,11.815,0,0,0,6.556-2.029l10.443,10.7a4.563,4.563,0,0,1-2.778.9H8.761a4.632,4.632,0,0,1-3.333-1.409,4.493,4.493,0,0,1-1.443-3.324L4.1,6.748A4.578,4.578,0,0,1,5.485,3.424,4.453,4.453,0,0,1,8.763,2.015h19L41.985,16.437v27.83Z" transform="translate(-3.985 -2.015)"/></svg>