<svg xmlns="http://www.w3.org/2000/svg" width="66" height="48" viewBox="0 0 66 48"><path d="M19.8,26.25a11.775,11.775,0,0,0,11.55-12,11.776,11.776,0,0,0-11.55-12,11.776,11.776,0,0,0-11.55,12A11.776,11.776,0,0,0,19.8,26.25Zm7.92,3.429h-.856a15.412,15.412,0,0,1-14.128,0H11.88A12.121,12.121,0,0,0,0,42.021v3.086A5.051,5.051,0,0,0,4.95,50.25h29.7a5.051,5.051,0,0,0,4.95-5.143V42.021A12.121,12.121,0,0,0,27.72,29.679ZM49.5,26.25a10.1,10.1,0,0,0,9.9-10.286,9.907,9.907,0,1,0-19.8,0A10.1,10.1,0,0,0,49.5,26.25Zm4.95,3.429h-.392a12.548,12.548,0,0,1-9.116,0H44.55a11.131,11.131,0,0,0-5.744,1.65A16.012,16.012,0,0,1,42.9,42.021v4.114c0,.236-.052.461-.062.686H61.05A5.05,5.05,0,0,0,66,41.679,11.776,11.776,0,0,0,54.45,29.679Z" transform="translate(0 -2.25)"/></svg>